<svg width="22" height="23" viewBox="0 0 22 23" fill="none" xmlns="http://www.w3.org/2000/svg">
<path d="M9.30176 2.2666L10.3857 1.18262C10.8447 0.723633 11.5869 0.723633 12.041 1.18262L21.5332 10.6699C21.9922 11.1289 21.9922 11.8711 21.5332 12.3252L12.041 21.8174C11.582 22.2764 10.8398 22.2764 10.3857 21.8174L9.30176 20.7334C8.83789 20.2695 8.84766 19.5127 9.32129 19.0586L13.3955 15.1771C14.049 14.5545 13.6083 13.4531 12.7057 13.4531H1.17188C0.522461 13.4531 0 12.9307 0 12.2812V10.7188C0 10.0693 0.522461 9.54688 1.17188 9.54688H12.7057C13.6083 9.54688 14.049 8.44546 13.3955 7.82285L9.32129 3.94141C8.84277 3.4873 8.83301 2.73047 9.30176 2.2666Z" fill="white"/>
</svg>
