<svg width="22" height="22" viewBox="0 0 22 22" fill="none" xmlns="http://www.w3.org/2000/svg">
<path d="M1.60498 12.5757L0.520996 11.4917C0.0620112 11.0327 0.0620112 10.2905 0.520996 9.83643L10.0083 0.344238C10.4673 -0.114747 11.2095 -0.114747 11.6636 0.344238L21.1558 9.83642C21.6147 10.2954 21.6147 11.0376 21.1558 11.4917L20.0718 12.5757C19.6079 13.0395 18.8511 13.0298 18.397 12.5562L14.5155 8.48199C13.8929 7.82846 12.7915 8.26913 12.7915 9.17176L12.7915 20.7056C12.7915 21.355 12.269 21.8774 11.6196 21.8774L10.0571 21.8774C9.40771 21.8774 8.88525 21.355 8.88525 20.7056L8.88525 9.17176C8.88525 8.26913 7.78384 7.82846 7.16123 8.48199L3.27978 12.5562C2.82568 13.0347 2.06885 13.0444 1.60498 12.5757Z" fill="white"/>
</svg>
